<svg
    xmlns="http://www.w3.org/2000/svg"
    xmlns:xlink="http://www.w3.org/1999/xlink"
    width="300"
    height="300"
    viewBox="1195 138.5 300 300">
    <!-- start of right squink -->
    <path d="M1338.15 268.91c24.86 11.03 25.9 48.38 47.15 91.9 10.6 21.7 27.64 36.48 27.35 38.41-.29 1.93-27.39-9.56-46.84-34.32-20.79-26.45-44.15-57.67-44.21-80.69-.05-23.02 16.55-15.3 16.55-15.3Z" style="fill:#8747cc"/>
    <ellipse cx="1391.28" cy="387.03" rx="2.76" ry="7.04" transform="rotate(-53.63 1391.215 387.042)"/>
    <ellipse cx="1370.67" cy="367" rx="3.82" ry="9.74" transform="rotate(-39.23 1370.63 366.996)"/>
    <ellipse cx="1350.44" cy="339.72" rx="4.19" ry="12.7" transform="rotate(-34.1 1350.437 339.726)"/>
    <path d="M1297.37 298.14c24.17 69.08-1.7 116.46-6.75 126.54-5.05 10.09 62.19-37.67 42.28-125.69-9.73-43.02-45.12-28.28-35.53-.85Z" style="fill:#8747cc"/>
    <ellipse cx="1320.24" cy="345.37" rx="9.26" ry="6.19" transform="rotate(-87 1320.224 345.382)"/>
    <ellipse cx="1316.35" cy="376.09" rx="7.73" ry="5.22" transform="rotate(-79.08 1316.35 376.093)"/>
    <ellipse cx="1306.71" cy="400.8" rx="5.35" ry="3.61" transform="rotate(-66.4 1306.764 400.783)"/>
    <path d="m1400.756 334.014 6.052-20.63 10.248 3.006-6.052 20.63z"/>
    <ellipse cx="1422.88" cy="278.15" rx="40.8" ry="45.87" transform="rotate(-81.45 1422.952 278.11)" style="fill:#427ed6"/>
    <ellipse cx="1422.88" cy="278.15" rx="33.61" ry="37.78" transform="rotate(-69.47 1422.816 278.175)" style="fill:#e2dcfe"/>
    <ellipse cx="1447.7" cy="275.46" rx="5.38" ry="9.27" transform="rotate(-12.89 1448.215 275.483)" style="fill:#f7f7f7"/>
    <rect x="1384.92" y="331.06" width="23.03" height="74.03" rx="11.52" ry="11.52" transform="rotate(16.35 1396.784 368.215)" style="fill:#427ed6"/>
    <path transform="rotate(-73.65 1402.68 346.564)" style="fill:#6af" d="M1401.05 335.01h3.43v23.03h-3.43z"/>
    <path transform="rotate(-73.65 1390.032 389.65)" style="fill:#6af" d="M1388.4 378.1h3.43v23.03h-3.43z"/>
    <path d="M1341.84 276.38c15.84 14.24 16.32 56.07 26.36 79.27 6.99 16.14 19.95 23.32 43.35 4.4 1.58-1.28 3.74.68 2.61 2.38-32.11 48.44-56.31 25-70.8 5.32-14.07-19.1-25.75-46.55-29.65-82.06-2.37-21.59 12.32-23.52 28.13-9.3Z" style="fill:#bc83fb"/>
    <path d="M1280.03 290.6c-7.74 60.54-45.34 86.84-53.89 90.82-.59.27-.39 1.15.26 1.17 43.13 1.21 65.63-33.82 82.4-79.92 15.64-43-24.37-46.47-28.76-12.07Z" style="fill:#8747cc"/>
    <path d="M1285.94 332.99c-3.14 7.24-9.71 9.77-11.82 4.55-2.11-5.22 1.82-14.27 7.07-16.3s7.89 4.5 4.75 11.74ZM1270.11 360.07c-4.14 5.01-9.92 5.51-10.39.9-.47-4.61 4.7-10.87 9.32-11.27 4.62-.4 5.21 5.36 1.07 10.37ZM1249.97 376.43c-3.62 1.8-7.02.63-6.13-2.11s5.41-4.99 8.14-4.05 1.61 4.36-2.01 6.16Z"/>
    <path d="M1302.54 261.75c-45.29 23.98-2.51 121.05-62.43 163.21-4.29 3.02 7.85 3.03 25.3-11.9 17.45-14.93 57.84-70.48 53.21-143.3-1.24-19.45-16.09-8.02-16.09-8.02Z" style="fill:#bc83fb"/>
    <path d="M1315.9 155.01c28.66 28.69 47.24 36.97 27.28 68.02-10.18-16.9-27.28-68.02-27.28-68.02ZM1312.57 156.09c-32.74 32.93-46.06 43.22-22.85 66.94 10.18-18.43 22.85-66.94 22.85-66.94Z" style="fill:#8747cc"/>
    <path d="M1345.84 262.68c-13.66 25.18-46.5 21.68-59.48 1.19-19.05-30.07 8.66-67.64 19.14-91.23l.02-.04c2.98-6.73 5.56-13.38 7.17-19.99.46-1.91 3.12-1.91 3.6-.01 8.75 34.49 51.33 69.92 29.54 110.08Z" style="fill:#bc83fb"/>
    <path d="M1341.85 268.69c-6.11 13.74-26.31 17.8-38.15 9.27 3.52.74 6.92.95 10.32.9 10.32.02 19.97-3.28 27.82-10.17Z" style="fill:#8747cc"/>
    <path d="M1311.85 259.33c1.32 4.15 9 4.3 10.08-.08.35-1.33 2.37-.94 2.22.42-.31 5.69-7.88 7.37-11.99 4.43-1.43-.71-4.2-5.08-1.55-5.64.58-.05 1.09.33 1.24.87Z"/>
    <!-- start of bib -->
    <path d="M1282.52 337.74c41.64 15.34 73.24-2.35 73.24-2.35l-22.14-51.87c-12.14 2.34-20.93 2.12-33.83 0l-17.27 54.21Z" style="fill:#f7f7f7"/>
    <ellipse cx="1317.84" cy="296.02" rx="7.2" ry="6.43" transform="rotate(-19.02 1317.893 296.014)" style="fill:#6af"/>
    <!-- end of bib -->
    <!-- start of rob -->
    <path d="M1291.24 269.98c3.34 5.88 11.38 9.28 17.48 11.09 4.3 1.28 6.93 5.59 6.02 9.98-8.2 39.65-15.12 57-15.12 57-31.63 2.97-45.47-22.74-45.47-22.74 24.93-20.14 23.82-48.65 35.46-55.75.56-.34 1.3-.16 1.63.41ZM1341.13 269.71c-3.09 5.76-9.27 9.45-14.02 11.55-3.67 1.63-5.71 5.6-4.93 9.54 8 40.22 12.47 56.99 12.47 56.99 31.63 2.97 43.56-22.74 43.56-22.74-12.49-32.67-23.12-49.47-35.51-55.83-.56-.29-1.27-.08-1.56.48Z" style="fill:#211d45"/>
    <!-- remove rob patterns
    <path d="M1346.09 272.81c-1.92 13.42-18.21 33.55-18.21 33.55M1287.2 273.94c6.71 23.96 22.05 31.63 22.05 31.63M1278.37 340.64c16.81-24.71 1.98-34.6-16.81-11.86M1352.99 340.38c-14.17-34.81 9.88-31.63 18.78-11.86" style="fill:none;stroke:#000;stroke-linecap:round;stroke-miterlimit:10;stroke-width:3px"/>
    -->
    <!-- end of rob -->
    <!-- start of tie -->
    <!-- remove tie
    <path d="m1315.21 301.98-4.55 37.21c-.09.74.11 1.48.55 2.08l5.84 7.8c1.19 1.59 3.6 1.53 4.71-.13l5.1-7.64c.41-.61.57-1.36.44-2.09l-6.39-37.36a2.885 2.885 0 0 0-2.84-2.4c-1.46 0-2.69 1.09-2.86 2.53Z" style="fill:#6af"/>
    -->
    <!-- end of tie -->
    <ellipse cx="1333" cy="247.03" rx="14.65" ry="11.24" transform="rotate(-6.9 1333.398 247.113)" style="fill:#e2dcfe;opacity:.5"/>
    <path style="fill:none;stroke:#565191;stroke-linecap:round;stroke-miterlimit:10;stroke-width:3px" d="M1347.85 246.35h6.93"/>
    <path d="M1320.64 251.94c.8-7.55 10.98-10.94 16.6-6.08 1.72 1.08 5.1 7.11 1.95 7.68-.66.06-1.26-.33-1.48-.93-.58-1.61-1.53-2.89-2.77-3.74-3.95-2.68-9.95-.87-11.55 3.77-.62 1.55-2.96.93-2.75-.71Z"/>
    <g style="opacity:.5"><ellipse cx="1299.03" cy="247.03" rx="11.24" ry="14.65" transform="rotate(-83.1 1299.003 247.044)" style="fill:#e2dcfe"/>
        <path style="fill:#e2dcfe" d="M1284.18 246.35h-6.94"/>
    </g>
    <path d="M1310.85 252.59c-2.29-6.45-12.19-6.69-14.3.03-.58 1.56-2.93 1.01-2.77-.63.65-7.84 10.74-10.89 16.47-6.05 1.68 1.06 5.27 6.92 2.13 7.61-.69.09-1.32-.33-1.54-.96Z"/>
    <ellipse cx="1299.03" cy="247.03" rx="11.24" ry="14.65" transform="rotate(-83.1 1299.003 247.044)" style="fill:none;stroke:#565191;stroke-miterlimit:10;stroke-width:3px"/>
    <path style="fill:none;stroke:#565191;stroke-linecap:round;stroke-miterlimit:10;stroke-width:3px" d="M1284.18 246.35h-6.94"/>
    <ellipse cx="1333" cy="247.03" rx="14.65" ry="11.24" transform="rotate(-6.9 1333.398 247.113)" style="fill:none;stroke:#565191;stroke-miterlimit:10;stroke-width:3px"/>
    <!-- end of right squink -->
</svg>